<mxfile host="app.diagrams.net" modified="2022-04-27T13:03:55.584Z" agent="5.0 (Windows NT 10.0; Win64; x64) AppleWebKit/537.36 (KHTML, like Gecko) Chrome/100.0.4896.127 Safari/537.36 Edg/100.0.1185.50" etag="MIxtfmgjlYBOPDfEWKtS" version="17.4.6" type="github">
  <diagram id="JteE3ArgZQ94tSYkAesp" name="Page-1">
    <mxGraphModel dx="1038" dy="579" grid="1" gridSize="10" guides="1" tooltips="1" connect="1" arrows="1" fold="1" page="1" pageScale="1" pageWidth="850" pageHeight="1100" math="0" shadow="0">
      <root>
        <mxCell id="0" />
        <mxCell id="1" parent="0" />
        <mxCell id="JIlx-kUd6HxkUG1PYP2B-3" value="" style="edgeStyle=orthogonalEdgeStyle;rounded=0;orthogonalLoop=1;jettySize=auto;html=1;" edge="1" parent="1" source="JIlx-kUd6HxkUG1PYP2B-1" target="JIlx-kUd6HxkUG1PYP2B-2">
          <mxGeometry relative="1" as="geometry" />
        </mxCell>
        <mxCell id="JIlx-kUd6HxkUG1PYP2B-1" value="start" style="rounded=1;whiteSpace=wrap;html=1;" vertex="1" parent="1">
          <mxGeometry x="320" y="30" width="90" height="30" as="geometry" />
        </mxCell>
        <mxCell id="JIlx-kUd6HxkUG1PYP2B-5" value="" style="edgeStyle=orthogonalEdgeStyle;rounded=0;orthogonalLoop=1;jettySize=auto;html=1;" edge="1" parent="1" source="JIlx-kUd6HxkUG1PYP2B-2" target="JIlx-kUd6HxkUG1PYP2B-4">
          <mxGeometry relative="1" as="geometry" />
        </mxCell>
        <mxCell id="JIlx-kUd6HxkUG1PYP2B-2" value="calcualted the expected score" style="rounded=0;whiteSpace=wrap;html=1;" vertex="1" parent="1">
          <mxGeometry x="305" y="100" width="120" height="60" as="geometry" />
        </mxCell>
        <mxCell id="JIlx-kUd6HxkUG1PYP2B-7" value="yes" style="edgeStyle=orthogonalEdgeStyle;rounded=0;orthogonalLoop=1;jettySize=auto;html=1;" edge="1" parent="1" source="JIlx-kUd6HxkUG1PYP2B-4" target="JIlx-kUd6HxkUG1PYP2B-6">
          <mxGeometry relative="1" as="geometry" />
        </mxCell>
        <mxCell id="JIlx-kUd6HxkUG1PYP2B-9" value="no" style="edgeStyle=orthogonalEdgeStyle;rounded=0;orthogonalLoop=1;jettySize=auto;html=1;" edge="1" parent="1" source="JIlx-kUd6HxkUG1PYP2B-4" target="JIlx-kUd6HxkUG1PYP2B-8">
          <mxGeometry relative="1" as="geometry" />
        </mxCell>
        <mxCell id="JIlx-kUd6HxkUG1PYP2B-4" value="IF scenario is win" style="rhombus;whiteSpace=wrap;html=1;rounded=0;" vertex="1" parent="1">
          <mxGeometry x="325" y="210" width="80" height="80" as="geometry" />
        </mxCell>
        <mxCell id="JIlx-kUd6HxkUG1PYP2B-6" value="set 1" style="whiteSpace=wrap;html=1;rounded=0;" vertex="1" parent="1">
          <mxGeometry x="465" y="220" width="120" height="60" as="geometry" />
        </mxCell>
        <mxCell id="JIlx-kUd6HxkUG1PYP2B-11" value="yes" style="edgeStyle=orthogonalEdgeStyle;rounded=0;orthogonalLoop=1;jettySize=auto;html=1;" edge="1" parent="1" source="JIlx-kUd6HxkUG1PYP2B-8" target="JIlx-kUd6HxkUG1PYP2B-10">
          <mxGeometry relative="1" as="geometry" />
        </mxCell>
        <mxCell id="JIlx-kUd6HxkUG1PYP2B-13" value="" style="edgeStyle=orthogonalEdgeStyle;rounded=0;orthogonalLoop=1;jettySize=auto;html=1;" edge="1" parent="1" source="JIlx-kUd6HxkUG1PYP2B-8" target="JIlx-kUd6HxkUG1PYP2B-12">
          <mxGeometry relative="1" as="geometry" />
        </mxCell>
        <mxCell id="JIlx-kUd6HxkUG1PYP2B-8" value="ELSE IF scenario is lose" style="rhombus;whiteSpace=wrap;html=1;rounded=0;" vertex="1" parent="1">
          <mxGeometry x="325" y="330" width="80" height="80" as="geometry" />
        </mxCell>
        <mxCell id="JIlx-kUd6HxkUG1PYP2B-10" value="set 0" style="whiteSpace=wrap;html=1;rounded=0;" vertex="1" parent="1">
          <mxGeometry x="465" y="340" width="120" height="60" as="geometry" />
        </mxCell>
        <mxCell id="JIlx-kUd6HxkUG1PYP2B-15" value="" style="edgeStyle=orthogonalEdgeStyle;rounded=0;orthogonalLoop=1;jettySize=auto;html=1;" edge="1" parent="1" source="JIlx-kUd6HxkUG1PYP2B-12" target="JIlx-kUd6HxkUG1PYP2B-14">
          <mxGeometry relative="1" as="geometry" />
        </mxCell>
        <mxCell id="JIlx-kUd6HxkUG1PYP2B-27" style="edgeStyle=orthogonalEdgeStyle;rounded=0;orthogonalLoop=1;jettySize=auto;html=1;entryX=0;entryY=0.5;entryDx=0;entryDy=0;" edge="1" parent="1" source="JIlx-kUd6HxkUG1PYP2B-12" target="JIlx-kUd6HxkUG1PYP2B-19">
          <mxGeometry relative="1" as="geometry">
            <Array as="points">
              <mxPoint x="365" y="530" />
              <mxPoint x="620" y="530" />
              <mxPoint x="620" y="70" />
            </Array>
          </mxGeometry>
        </mxCell>
        <mxCell id="JIlx-kUd6HxkUG1PYP2B-12" value="ELSE" style="rhombus;whiteSpace=wrap;html=1;rounded=0;" vertex="1" parent="1">
          <mxGeometry x="325" y="430" width="80" height="80" as="geometry" />
        </mxCell>
        <mxCell id="JIlx-kUd6HxkUG1PYP2B-14" value="set 0.5" style="whiteSpace=wrap;html=1;rounded=0;" vertex="1" parent="1">
          <mxGeometry x="465" y="440" width="120" height="60" as="geometry" />
        </mxCell>
        <mxCell id="JIlx-kUd6HxkUG1PYP2B-17" value="yes" style="edgeStyle=orthogonalEdgeStyle;rounded=0;orthogonalLoop=1;jettySize=auto;html=1;" edge="1" parent="1" source="JIlx-kUd6HxkUG1PYP2B-19" target="JIlx-kUd6HxkUG1PYP2B-20">
          <mxGeometry relative="1" as="geometry" />
        </mxCell>
        <mxCell id="JIlx-kUd6HxkUG1PYP2B-18" value="no" style="edgeStyle=orthogonalEdgeStyle;rounded=0;orthogonalLoop=1;jettySize=auto;html=1;" edge="1" parent="1" source="JIlx-kUd6HxkUG1PYP2B-19" target="JIlx-kUd6HxkUG1PYP2B-22">
          <mxGeometry relative="1" as="geometry" />
        </mxCell>
        <mxCell id="JIlx-kUd6HxkUG1PYP2B-19" value="IF arenaleve 1 to 5" style="rhombus;whiteSpace=wrap;html=1;rounded=0;" vertex="1" parent="1">
          <mxGeometry x="650" y="30" width="80" height="80" as="geometry" />
        </mxCell>
        <mxCell id="JIlx-kUd6HxkUG1PYP2B-20" value="set the kval 32" style="whiteSpace=wrap;html=1;rounded=0;" vertex="1" parent="1">
          <mxGeometry x="790" y="40" width="120" height="60" as="geometry" />
        </mxCell>
        <mxCell id="JIlx-kUd6HxkUG1PYP2B-21" value="yes" style="edgeStyle=orthogonalEdgeStyle;rounded=0;orthogonalLoop=1;jettySize=auto;html=1;" edge="1" parent="1" source="JIlx-kUd6HxkUG1PYP2B-22" target="JIlx-kUd6HxkUG1PYP2B-23">
          <mxGeometry relative="1" as="geometry" />
        </mxCell>
        <mxCell id="JIlx-kUd6HxkUG1PYP2B-28" value="" style="edgeStyle=orthogonalEdgeStyle;rounded=0;orthogonalLoop=1;jettySize=auto;html=1;" edge="1" parent="1" source="JIlx-kUd6HxkUG1PYP2B-22" target="JIlx-kUd6HxkUG1PYP2B-25">
          <mxGeometry relative="1" as="geometry" />
        </mxCell>
        <mxCell id="JIlx-kUd6HxkUG1PYP2B-22" value="ELSE IF arenal leve 6 to 10&amp;nbsp;" style="rhombus;whiteSpace=wrap;html=1;rounded=0;" vertex="1" parent="1">
          <mxGeometry x="650" y="150" width="80" height="80" as="geometry" />
        </mxCell>
        <mxCell id="JIlx-kUd6HxkUG1PYP2B-23" value="set the kval 25" style="whiteSpace=wrap;html=1;rounded=0;" vertex="1" parent="1">
          <mxGeometry x="790" y="160" width="120" height="60" as="geometry" />
        </mxCell>
        <mxCell id="JIlx-kUd6HxkUG1PYP2B-24" value="" style="edgeStyle=orthogonalEdgeStyle;rounded=0;orthogonalLoop=1;jettySize=auto;html=1;" edge="1" parent="1" source="JIlx-kUd6HxkUG1PYP2B-25" target="JIlx-kUd6HxkUG1PYP2B-26">
          <mxGeometry relative="1" as="geometry" />
        </mxCell>
        <mxCell id="JIlx-kUd6HxkUG1PYP2B-30" value="" style="edgeStyle=orthogonalEdgeStyle;rounded=0;orthogonalLoop=1;jettySize=auto;html=1;" edge="1" parent="1" source="JIlx-kUd6HxkUG1PYP2B-25" target="JIlx-kUd6HxkUG1PYP2B-29">
          <mxGeometry relative="1" as="geometry" />
        </mxCell>
        <mxCell id="JIlx-kUd6HxkUG1PYP2B-25" value="ELSE" style="rhombus;whiteSpace=wrap;html=1;rounded=0;" vertex="1" parent="1">
          <mxGeometry x="650" y="250" width="80" height="80" as="geometry" />
        </mxCell>
        <mxCell id="JIlx-kUd6HxkUG1PYP2B-26" value="set the kval 16" style="whiteSpace=wrap;html=1;rounded=0;" vertex="1" parent="1">
          <mxGeometry x="790" y="260" width="120" height="60" as="geometry" />
        </mxCell>
        <mxCell id="JIlx-kUd6HxkUG1PYP2B-32" value="" style="edgeStyle=orthogonalEdgeStyle;rounded=0;orthogonalLoop=1;jettySize=auto;html=1;" edge="1" parent="1" source="JIlx-kUd6HxkUG1PYP2B-29" target="JIlx-kUd6HxkUG1PYP2B-31">
          <mxGeometry relative="1" as="geometry" />
        </mxCell>
        <mxCell id="JIlx-kUd6HxkUG1PYP2B-29" value="calculate the trophy and adjustment trophy" style="whiteSpace=wrap;html=1;rounded=0;" vertex="1" parent="1">
          <mxGeometry x="630" y="390" width="120" height="60" as="geometry" />
        </mxCell>
        <mxCell id="JIlx-kUd6HxkUG1PYP2B-34" value="" style="edgeStyle=orthogonalEdgeStyle;rounded=0;orthogonalLoop=1;jettySize=auto;html=1;" edge="1" parent="1" source="JIlx-kUd6HxkUG1PYP2B-31" target="JIlx-kUd6HxkUG1PYP2B-33">
          <mxGeometry relative="1" as="geometry" />
        </mxCell>
        <mxCell id="JIlx-kUd6HxkUG1PYP2B-31" value="return trophy" style="whiteSpace=wrap;html=1;rounded=0;" vertex="1" parent="1">
          <mxGeometry x="830" y="390" width="120" height="60" as="geometry" />
        </mxCell>
        <mxCell id="JIlx-kUd6HxkUG1PYP2B-33" value="end" style="ellipse;whiteSpace=wrap;html=1;rounded=0;" vertex="1" parent="1">
          <mxGeometry x="710" y="490" width="130" height="40" as="geometry" />
        </mxCell>
      </root>
    </mxGraphModel>
  </diagram>
</mxfile>
